name GIL08_xslow2.mot
datacolumns 153
datarows 4
range 1.39166665 1.41666663
endheader

                time	           pelvis_tx	           pelvis_ty	           pelvis_tz	         pelvis_tilt	         pelvis_list	     pelvis_rotation	       hip_flexion_r	     hip_adduction_r	      hip_rotation_r	        knee_angle_r	       ankle_angle_r	    subtalar_angle_r	         mtp_angle_r	       hip_flexion_l	     hip_adduction_l	      hip_rotation_l	        knee_angle_l	       ankle_angle_l	    subtalar_angle_l	         mtp_angle_l	    lumbar_extension	      lumbar_bending	     lumbar_rotation	     ground_force_vx	     ground_force_vy	     ground_force_vz	     ground_force_px	     ground_force_py	     ground_force_pz	     ground_force_vx	     ground_force_vy	     ground_force_vz	     ground_force_px	     ground_force_py	     ground_force_pz	     ground_torque_x	     ground_torque_y	     ground_torque_z	     ground_torque_x	     ground_torque_y	     ground_torque_z	    ground_marker_px	    ground_marker_py	    ground_marker_pz	    ground_marker_px	    ground_marker_py	    ground_marker_pz	    ground_marker_px	    ground_marker_py	    ground_marker_pz	    ground_marker_px	    ground_marker_py	    ground_marker_pz	    ground_marker_px	    ground_marker_py	    ground_marker_pz	    ground_marker_px	    ground_marker_py	    ground_marker_pz	    ground_marker_px	    ground_marker_py	    ground_marker_pz	    ground_marker_px	    ground_marker_py	    ground_marker_pz	    ground_marker_px	    ground_marker_py	    ground_marker_pz	    ground_marker_px	    ground_marker_py	    ground_marker_pz	    ground_marker_px	    ground_marker_py	    ground_marker_pz	    ground_marker_px	    ground_marker_py	    ground_marker_pz	    ground_marker_px	    ground_marker_py	    ground_marker_pz	    ground_marker_px	    ground_marker_py	    ground_marker_pz	    ground_marker_px	    ground_marker_py	    ground_marker_pz	    ground_marker_px	    ground_marker_py	    ground_marker_pz	    ground_marker_px	    ground_marker_py	    ground_marker_pz	    ground_marker_px	    ground_marker_py	    ground_marker_pz	    ground_marker_px	    ground_marker_py	    ground_marker_pz	    ground_marker_px	    ground_marker_py	    ground_marker_pz	    ground_marker_px	    ground_marker_py	    ground_marker_pz	    ground_marker_px	    ground_marker_py	    ground_marker_pz	    ground_marker_px	    ground_marker_py	    ground_marker_pz	    ground_marker_px	    ground_marker_py	    ground_marker_pz	    ground_marker_px	    ground_marker_py	    ground_marker_pz	    ground_marker_px	    ground_marker_py	    ground_marker_pz	    ground_marker_px	    ground_marker_py	    ground_marker_pz	    ground_marker_px	    ground_marker_py	    ground_marker_pz	    ground_marker_px	    ground_marker_py	    ground_marker_pz	    ground_marker_px	    ground_marker_py	    ground_marker_pz	    ground_marker_px	    ground_marker_py	    ground_marker_pz	    ground_marker_px	    ground_marker_py	    ground_marker_pz	    ground_marker_px	    ground_marker_py	    ground_marker_pz	    ground_marker_px	    ground_marker_py	    ground_marker_pz	    ground_marker_px	    ground_marker_py	    ground_marker_pz	    ground_marker_px	    ground_marker_py	    ground_marker_pz	    ground_marker_px	    ground_marker_py	    ground_marker_pz	
          1.39166665	         -0.20310748	          0.98851824	          0.26947659	          5.62516499	          0.26394603	         12.94941711	         -5.02911711	         -0.13443042	          4.02046633	        -11.17850590	          9.50071144	          0.00000000	          0.00000000	         12.34398079	          0.10637001	          7.37040424	        -30.96920204	         13.85158348	          0.00000000	          0.00000000	        -26.90246391	          2.65620112	         -1.99257660	         -3.53162246	        580.05404017	        -10.15357907	         -0.27340399	          0.00000000	          0.31404001	          0.00000000	          0.00000000	          0.00000000	         -0.59223022	          0.00000000	          0.22789699	          0.00000000	          0.17503589	          0.00000000	          0.00000000	          0.00000000	          0.00000000	         -0.27971888	          0.89993739	          0.28359598	         -0.26638055	          0.88829833	          0.33556187	         -0.29006112	          0.89142549	          0.23170325	         -0.26317888	          0.48176298	          0.32357058	         -0.16479100	          0.49294028	          0.19194198	         -0.34321168	          0.07046244	          0.31650472	         -0.26183560	          0.08329004	          0.18193370	         -0.20310748	          0.98851824	          0.26947659	         -0.17997387	          0.98546338	          0.37093636	         -0.22624108	          0.99157310	          0.16801682	         -0.39273456	          1.01019669	          0.34653446	         -0.41170391	          1.01100469	          0.26275361	         -0.24592391	          0.48021987	          0.38049278	         -0.17078479	          0.49694926	          0.13288054	         -0.28055525	          0.49769944	          0.26671064	         -0.16848736	          0.48588252	          0.24373513	         -0.34296381	          0.06976151	          0.35449746	         -0.27068540	          0.08632410	          0.14355759	         -0.34360379	          0.07527693	          0.28423777	         -0.25715470	          0.09708256	          0.21038562	         -0.31636769	          1.46879256	          0.31644043	         -0.21256174	          1.38833475	          0.37834591	         -0.23963352	          1.39772666	          0.22540994	         -0.23880056	          1.39532077	          0.30023620	         -0.21698046	          1.19282913	          0.27707615	         -0.20252439	          0.58103120	          0.46004778	         -0.06056096	          0.65169555	          0.16746414	         -0.19446450	          0.64505905	          0.39037889	         -0.15209134	          0.68796700	          0.14073947	         -0.20111936	          0.56505543	          0.36342958	         -0.13872641	          0.60119259	          0.14373456	         -0.30823886	          0.13893279	          0.42159829	         -0.14380720	          0.17765884	          0.17362981	         -0.31979701	          0.19999485	          0.36310616	         -0.19753802	          0.24033235	          0.17374562	         -0.21983670	          0.04210214	          0.30316085	         -0.14398879	          0.06187959	          0.17701131	
          1.39999998	         -0.19911246	          0.98826998	          0.26944891	          5.64220476	          0.37064728	         12.86432266	         -5.30642557	         -0.16006161	          4.28156853	        -11.23270798	          9.81897163	          0.00000000	          0.00000000	         12.64737129	          0.26890260	          7.47981977	        -29.97958565	         13.71554089	          0.00000000	          0.00000000	        -26.95369720	          2.53078389	         -1.93268526	         -2.70965161	        579.41640952	         -9.90932447	         -0.27152289	          0.00000000	          0.31340036	          0.00000000	          0.00000000	          0.00000000	         -0.59067865	          0.00000000	          0.22770445	          0.00000000	          0.20472552	          0.00000000	          0.00000000	          0.00000000	          0.00000000	         -0.27553418	          0.89971137	          0.28323749	         -0.26246750	          0.88792056	          0.33525854	         -0.28597420	          0.89121598	          0.23136568	         -0.26100725	          0.48133633	          0.32319719	         -0.15819918	          0.49350241	          0.19186017	         -0.34318757	          0.07045777	          0.31632575	         -0.24558510	          0.08166742	          0.18185659	         -0.19911246	          0.98826998	          0.26944891	         -0.17614743	          0.98505050	          0.37094769	         -0.22207749	          0.99148947	          0.16795014	         -0.38875511	          1.00976419	          0.34618625	         -0.40759882	          1.01068306	          0.26231307	         -0.24358748	          0.47971186	          0.38006687	         -0.16394782	          0.49752450	          0.13277526	         -0.27851492	          0.49738458	          0.26644889	         -0.16263214	          0.48637387	          0.24344105	         -0.34284511	          0.06975392	          0.35431769	         -0.25452489	          0.08449636	          0.14348565	         -0.34366998	          0.07523452	          0.28411713	         -0.24123175	          0.09554607	          0.21031818	         -0.31225619	          1.46848273	          0.31623876	         -0.20843340	          1.38800752	          0.37819725	         -0.23553477	          1.39738882	          0.22516845	         -0.23468690	          1.39498961	          0.30004203	         -0.21289337	          1.19249225	          0.27690613	         -0.19951724	          0.58043319	          0.45952827	         -0.05509783	          0.65300196	          0.16806363	         -0.19158286	          0.64448225	          0.38987073	         -0.14669126	          0.68865663	          0.14080545	         -0.19853768	          0.56447291	          0.36288607	         -0.13288169	          0.60199422	          0.14377205	         -0.30758998	          0.13874152	          0.42132559	         -0.12981521	          0.17883639	          0.17350167	         -0.31884629	          0.19984657	          0.36286342	         -0.18500789	          0.24020194	          0.17365563	         -0.21980733	          0.04213931	          0.30301353	         -0.12724043	          0.06275490	          0.17677374	
          1.40833330	         -0.19508550	          0.98798549	          0.26945826	          5.65071869	          0.47942877	         12.76423550	         -5.56572771	         -0.18446292	          4.54437494	        -11.30398846	         10.13630867	          0.00000000	          0.00000000	         12.94521713	          0.41770956	          7.57219887	        -28.98665237	         13.44481850	          0.00000000	          0.00000000	        -27.03088951	          2.39054966	         -1.87135875	         -1.82854945	        579.31199725	         -9.57491878	         -0.26963348	          0.00000000	          0.31277869	          0.00000000	          0.00000000	          0.00000000	         -0.58888953	          0.00000000	          0.22753357	          0.00000000	          0.22661588	          0.00000000	          0.00000000	          0.00000000	          0.00000000	         -0.27134708	          0.89952123	          0.28279820	         -0.25855473	          0.88751632	          0.33497444	         -0.28185964	          0.89098454	          0.23104173	         -0.25877365	          0.48090374	          0.32279775	         -0.15168996	          0.49400654	          0.19174327	         -0.34313735	          0.07045534	          0.31615472	         -0.22944719	          0.08026087	          0.18186773	         -0.19508550	          0.98798549	          0.26945826	         -0.17231561	          0.98459691	          0.37100482	         -0.21785539	          0.99137414	          0.16791171	         -0.38477910	          1.00931978	          0.34582463	         -0.40352291	          1.01037276	          0.26188061	         -0.24120265	          0.47919267	          0.37961838	         -0.15719691	          0.49805197	          0.13263695	         -0.27627951	          0.49702129	          0.26612020	         -0.15664463	          0.48682660	          0.24321875	         -0.34270254	          0.06975110	          0.35414574	         -0.23848468	          0.08287501	          0.14350447	         -0.34363893	          0.07517777	          0.28399408	         -0.22534108	          0.09420800	          0.21033782	         -0.30811709	          1.46819997	          0.31594917	         -0.20428793	          1.38763726	          0.37805018	         -0.23138924	          1.39697242	          0.22494647	         -0.23053975	          1.39460421	          0.29985595	         -0.20888425	          1.19208157	          0.27681205	         -0.19649829	          0.57981354	          0.45900059	         -0.04970953	          0.65424436	          0.16864079	         -0.18869163	          0.64385790	          0.38938189	         -0.14140707	          0.68929160	          0.14083454	         -0.19587000	          0.56389356	          0.36235288	         -0.12704521	          0.60271811	          0.14382100	         -0.30691856	          0.13854246	          0.42105496	         -0.11596962	          0.18012960	          0.17339730	         -0.31792939	          0.19972663	          0.36263525	         -0.17263432	          0.24016879	          0.17363112	         -0.21975709	          0.04216539	          0.30286711	         -0.11068055	          0.06356000	          0.17651492	
          1.41666663	         -0.19103047	          0.98766863	          0.26949281	          5.65180969	          0.59188628	         12.65625000	         -5.81169033	         -0.21132101	          4.79916859	        -11.38894176	         10.45055389	          0.00000000	          0.00000000	         13.23357964	          0.55768907	          7.64809227	        -27.98660278	         13.02554131	          0.00000000	          0.00000000	        -27.09654808	          2.24635959	         -1.80916941	         -0.98303173	        580.00570249	         -9.11529093	         -0.26765408	          0.00000000	          0.31217444	          0.00000000	          0.00000000	          0.00000000	         -0.58687268	          0.00000000	          0.22739145	          0.00000000	          0.24649171	          0.00000000	          0.00000000	          0.00000000	          0.00000000	         -0.26727891	          0.89923155	          0.28228885	         -0.25463617	          0.88708544	          0.33470106	         -0.27772382	          0.89073479	          0.23072605	         -0.25649190	          0.48046559	          0.32237938	         -0.14528279	          0.49444285	          0.19159509	         -0.34307358	          0.07045759	          0.31599572	         -0.21344151	          0.07906607	          0.18194120	         -0.19103047	          0.98766863	          0.26949281	         -0.16846971	          0.98410261	          0.37109491	         -0.21359125	          0.99123466	          0.16789071	         -0.38080874	          1.00885892	          0.34544578	         -0.39947990	          1.01007628	          0.26145667	         -0.23878606	          0.47866431	          0.37915534	         -0.15055659	          0.49851856	          0.13246959	         -0.27402112	          0.49679744	          0.26577675	         -0.15063003	          0.48723102	          0.24294871	         -0.34254175	          0.06975379	          0.35398549	         -0.22258388	          0.08145760	          0.14358826	         -0.34359062	          0.07511763	          0.28384167	         -0.20945087	          0.09309917	          0.21042639	         -0.30395967	          1.46784019	          0.31563982	         -0.20018186	          1.38723421	          0.37775508	         -0.22724926	          1.39652109	          0.22467528	         -0.22641513	          1.39418387	          0.29956996	         -0.20487553	          1.19163918	          0.27661178	         -0.19348226	          0.57917917	          0.45847279	         -0.04439287	          0.65541065	          0.16917722	         -0.18561712	          0.64330608	          0.38895026	         -0.13614190	          0.68989623	          0.14081903	         -0.19315183	          0.56325567	          0.36183834	         -0.12119665	          0.60338819	          0.14383125	         -0.30621755	          0.13834146	          0.42078525	         -0.10228065	          0.18153192	          0.17329717	         -0.31705862	          0.19958544	          0.36237210	         -0.16038908	          0.24021608	          0.17361163	         -0.21970284	          0.04217963	          0.30272883	         -0.09432760	          0.06425878	          0.17625973	
